<svg xmlns="http://www.w3.org/2000/svg" version="1.1" xmlns:xlink="http://www.w3.org/1999/xlink" viewBox="0 0 7.101909651197995 6.576379210052953"><g transform="matrix(0.8522780648191639,0,0,0.8522780648191639,1.9477975215743124,2.987761587177721)"><g transform="matrix(1,0,0,1,0,0)"><g clip-path="url(#SvgjsClipPath178389)"><path d=" M -0.9492182489571406 0.8961521804948704 C -1.143446326439034 0.5597402112046446 -1.143446326439034 0.14525978879535506 -0.949218067739747 -0.19115218049487082 L -0.00758530851360617 -1.822108721979483 C 0.18664349383786139 -2.158522503443644 0.5455916581835345 -2.3657609024743538 0.9340565115822097 -2.3657609024743538 L 2.8173582735131912 -2.3657609024743538 C 3.205833999955476 -2.3657609024743538 3.5647894129968885 -2.1585098182260993 3.759000093609006 -1.8220815393704584 L 4.700587548486772 -0.1911340587555208 C 4.894780107359541 0.14527791053470507 4.894780107359541 0.559722089465295 4.700587548486772 0.8961340587555209 L 3.759000093609006 2.5270906002401334 C 3.5647894129968885 2.8635025695303584 3.205833999955476 3.070760902474354 2.8173582735131912 3.070760902474354 L 0.9340565115822097 3.070760902474354 C 0.5455916581835345 3.070760902474354 0.18664349383786139 2.8635206912697093 -0.00758530851360617 2.5271087219794826 L -0.9492182489571406 0.8961521804948704 Z" fill="#c08c46" transform="matrix(1,0,0,1,0,0)" fill-rule="nonzero"></path></g></g><g transform="matrix(1,0,0,1,0,0)"><path d=" M 0.502 0.59 L 0.252 0.59 L 0.214 0.705 L 0.008 0.705 L 0.265 0 L 0.491 0 L 0.747 0.705 L 0.54 0.705 L 0.502 0.59 M 0.453 0.43999999999999995 L 0.377 0.21199999999999997 L 0.302 0.43999999999999995 L 0.453 0.43999999999999995 M 1.4630048828125 0.705 L 1.2670048828125 0.705 L 1.0060048828125 0.31099999999999994 L 1.0060048828125 0.705 L 0.8100048828125 0.705 L 0.8100048828125 0 L 1.0060048828125 0 L 1.2670048828125 0.39899999999999997 L 1.2670048828125 0 L 1.4630048828125 0 L 1.4630048828125 0.705 M 1.99101953125 0.705 L 1.77001953125 0.39599999999999996 L 1.77001953125 0.705 L 1.57401953125 0.705 L 1.57401953125 0 L 1.77001953125 0 L 1.77001953125 0.30399999999999994 L 1.98901953125 0 L 2.2150195312500003 0 L 1.95601953125 0.34199999999999997 L 2.22801953125 0.705 L 1.99101953125 0.705 M 2.7450327148437497 0.59 L 2.4950327148437497 0.59 L 2.45703271484375 0.705 L 2.25103271484375 0.705 L 2.50803271484375 0 L 2.73403271484375 0 L 2.9900327148437498 0.705 L 2.78303271484375 0.705 L 2.7450327148437497 0.59 M 2.6960327148437497 0.43999999999999995 L 2.6200327148437497 0.21199999999999997 L 2.54503271484375 0.43999999999999995 L 2.6960327148437497 0.43999999999999995 M 3.70603759765625 0.705 L 3.51003759765625 0.705 L 3.24903759765625 0.31099999999999994 L 3.24903759765625 0.705 L 3.05303759765625 0.705 L 3.05303759765625 0 L 3.24903759765625 0 L 3.51003759765625 0.39899999999999997 L 3.51003759765625 0 L 3.70603759765625 0 L 3.70603759765625 0.705" fill="#fffdfa" fill-rule="nonzero"></path></g><g transform="matrix(1,0,0,1,0,0)"></g></g><defs><clipPath id="SvgjsClipPath178389"><path d=" M -1.0999999999999994 -2.3657609024743538 h 5.962052246093749 v 5.436521804948708 h -5.962052246093749 Z"></path></clipPath></defs></svg>