<?xml version="1.0" encoding="UTF-8" standalone="no" ?>
<!DOCTYPE svg PUBLIC "-//W3C//DTD SVG 1.1//EN" "http://www.w3.org/Graphics/SVG/1.1/DTD/svg11.dtd">
<svg xmlns="http://www.w3.org/2000/svg" xmlns:xlink="http://www.w3.org/1999/xlink" version="1.1" width="1280" height="1024" viewBox="0 0 1280 1024" xml:space="preserve">
<desc>Created with Fabric.js 5.3.0</desc>
<defs>
</defs>
<g transform="matrix(1 0 0 1 640 512)" id="background-logo"  >
<rect style="stroke: none; stroke-width: 0; stroke-dasharray: none; stroke-linecap: butt; stroke-dashoffset: 0; stroke-linejoin: miter; stroke-miterlimit: 4; fill: rgb(255,255,255); fill-opacity: 0; fill-rule: nonzero; opacity: 1;"  paint-order="stroke"  x="-640" y="-512" rx="0" ry="0" width="1280" height="1024" />
</g>
<g transform="matrix(1.9211538461538462 0 0 1.9211538461538462 642.2437181702439 491.1654327411857)" id="text-logo"  >
<g style=""  paint-order="stroke"   >
		<g transform="matrix(1 0 0 1 0 0)" id="text-logo-path-0"  >
<path style="stroke: none; stroke-width: 0.8723404255319152; stroke-dasharray: none; stroke-linecap: butt; stroke-dashoffset: 0; stroke-linejoin: miter; stroke-miterlimit: 4; fill: rgb(255,255,255); fill-rule: nonzero; opacity: 1;"  paint-order="stroke"  transform=" translate(-254.445, 21.32)" d="M 26.65 15.58 C 36.08 15.58 43.79 14.84 43.79 8.28 C 43.79 4.92 40.59 1.48 34.77 1.48 C 30.42 1.48 28.37 0.74 28.37 -9.76 C 28.37 -13.86 26.49 -17.79 23.04 -20.5 C 21.89 -21.4 21.89 -22.22 23.12 -23.04 C 26.32 -25.26 28.37 -28.37 28.37 -32.64 C 28.37 -43.13 30.42 -43.87 34.77 -43.87 C 40.59 -43.87 43.79 -47.31 43.79 -50.68 C 43.79 -57.07 36.08 -57.81 26.65 -57.81 C 14.35 -57.81 14.35 -44.36 14.35 -35.26 C 14.35 -27.39 2.87 -31.24 2.87 -22.71 C 2.87 -15.25 14.35 -18.2 14.35 -7.05 C 14.35 2.05 14.35 15.58 26.65 15.58 Z M 24.44 -29.27 C 23.62 -29.27 23.04 -30.01 23.21 -30.83 C 23.37 -31.32 23.45 -31.9 23.45 -32.64 L 23.45 -33.13 C 23.45 -33.78 24.03 -34.36 24.68 -34.36 C 25.34 -34.36 25.91 -33.78 25.91 -33.13 L 25.91 -32.64 C 25.91 -31.73 25.83 -30.91 25.58 -30.18 C 25.42 -29.6 24.93 -29.27 24.44 -29.27 Z M 24.85 -35.75 C 24.03 -35.75 23.53 -36.49 23.62 -37.15 C 24.6 -47.72 29.77 -48.79 34.77 -48.79 C 37.72 -48.79 38.87 -50.02 38.87 -50.68 C 38.87 -51.25 38.29 -51.74 36.82 -52.15 C 36.33 -52.23 35.92 -52.73 35.92 -53.3 C 35.92 -54.12 36.74 -54.69 37.47 -54.45 C 40.1 -53.79 41.33 -52.48 41.33 -50.68 C 41.33 -48.63 39.2 -46.33 34.77 -46.33 C 30.18 -46.33 26.81 -45.43 26.08 -36.9 C 25.99 -36.24 25.5 -35.75 24.85 -35.75 Z M 114.14 0.41 C 118.74 0.41 121.52 -2.3 122.59 -7.71 C 123.08 -9.92 124.23 -11.15 126.44 -11.15 L 129.15 -11.15 C 131.45 -11.15 132.68 -9.92 133.09 -7.71 C 133.91 -2.79 135.87 0.41 140.55 0.41 C 146.53 0.41 149.08 -5.99 149.08 -14.51 C 149.08 -37.06 142.43 -57.07 128.17 -57.07 C 113.08 -57.07 105.86 -37.06 105.86 -12.38 C 105.86 -3.61 108.49 0.41 114.14 0.41 Z M 128.74 -22.8 L 127.35 -22.8 C 124.97 -22.8 123.66 -24.27 123.98 -26.81 C 124.8 -33.46 126.36 -37.8 128.17 -37.8 C 131.04 -37.8 132.02 -33.78 132.43 -26.73 C 132.51 -24.19 131.12 -22.8 128.74 -22.8 Z M 144.32 -29.27 C 143.75 -29.27 143.25 -29.68 143.17 -30.26 L 142.6 -32.8 C 142.35 -33.62 143.01 -34.36 143.75 -34.36 C 144.32 -34.36 144.81 -33.95 144.98 -33.37 L 145.55 -30.75 C 145.71 -30.01 145.14 -29.27 144.32 -29.27 Z M 142.76 -35.67 C 142.19 -35.67 141.78 -36 141.61 -36.57 C 138.91 -45.35 134.56 -51.41 129.07 -51.99 C 128.41 -52.07 127.92 -52.64 127.92 -53.22 C 127.92 -54.04 128.66 -54.53 129.31 -54.45 C 136.2 -53.71 141.12 -46.74 143.99 -37.23 C 144.16 -36.49 143.58 -35.67 142.76 -35.67 Z M 185.98 -22.71 C 188.52 -22.71 189.67 -17.38 191.55 -12.3 C 194.59 -4.18 198.19 0.41 202.38 0.41 C 211.15 0.41 213.12 -8.86 213.12 -29.85 C 213.12 -43.38 212.05 -57.07 202.29 -57.07 C 194.01 -57.07 194.5 -49.12 194.5 -35.59 C 194.5 -33.87 193.93 -32.8 193.11 -32.8 C 191.88 -32.8 191.55 -34.69 189.91 -39.93 C 187.86 -46.9 184.5 -57.07 177.53 -57.07 C 168.76 -57.07 167.69 -43.38 167.69 -29.85 C 167.69 -12.3 169.66 0.41 178.35 0.41 C 183.19 0.41 185.81 -2.3 184.5 -19.93 C 184.34 -22.06 185.07 -22.71 185.98 -22.71 Z M 209.02 -29.44 C 208.36 -29.44 207.79 -29.93 207.79 -30.67 L 207.79 -32.96 C 207.79 -33.62 208.36 -34.19 209.02 -34.19 C 209.67 -34.19 210.25 -33.62 210.25 -32.96 L 210.25 -30.67 C 210.25 -29.93 209.67 -29.44 209.02 -29.44 Z M 208.85 -35.83 C 208.2 -35.83 207.62 -36.41 207.62 -37.06 C 207.62 -43.79 206.56 -49.69 203.36 -52.64 C 203.2 -52.81 203.03 -53.14 203.03 -53.38 C 203.03 -54.12 203.61 -54.61 204.26 -54.61 C 204.67 -54.61 205 -54.45 205.25 -54.2 C 209.02 -50.51 210.08 -43.87 210.08 -37.15 C 210.08 -36.41 209.51 -35.83 208.85 -35.83 Z M 187.62 -33.95 C 187.12 -33.95 186.63 -34.28 186.47 -34.77 C 184.5 -40.67 181.55 -50.84 178.02 -52.15 C 177.53 -52.32 177.2 -52.81 177.2 -53.3 C 177.2 -54.28 178.19 -54.69 178.92 -54.45 C 183.76 -52.48 186.8 -41.49 188.76 -35.67 C 189.01 -35.01 188.6 -33.95 187.62 -33.95 Z M 243.46 0.41 C 253.3 0.41 246.41 -16.97 251.74 -16.97 C 255.43 -16.97 262.07 -0.41 272.49 -0.41 C 275.19 -0.41 278.47 -2.46 278.47 -6.81 C 278.47 -10.82 270.44 -20.5 262.65 -27.63 C 261.66 -28.54 261.58 -29.52 262.48 -30.59 C 269.12 -38.29 274.86 -48.05 274.86 -52.4 C 274.86 -55.43 271.34 -57.56 268.63 -57.56 C 264.12 -57.56 257.56 -53.3 252.72 -46.66 C 251.74 -45.26 250.92 -45.59 250.67 -47.23 C 249.77 -54.28 247.56 -58.22 242.64 -58.22 C 232.96 -58.22 232.8 -47.56 232.8 -30.42 C 232.8 -8.36 234.77 0.41 243.46 0.41 Z M 258.79 -30.5 C 258.14 -30.5 257.56 -31.08 257.56 -31.73 C 257.56 -31.98 257.64 -32.23 257.81 -32.47 L 259.12 -34.11 C 259.37 -34.36 259.69 -34.52 260.1 -34.52 C 260.76 -34.52 261.33 -34.03 261.33 -33.29 C 261.33 -33.05 261.17 -32.8 261.01 -32.55 L 259.78 -31 C 259.53 -30.67 259.2 -30.5 258.79 -30.5 Z M 246.82 -46.49 C 246.25 -46.49 245.75 -46.9 245.67 -47.48 C 245.18 -49.69 245.02 -51.17 243.95 -52.73 C 243.79 -52.89 243.7 -53.14 243.7 -53.38 C 243.7 -54.12 244.28 -54.61 244.93 -54.61 C 245.34 -54.61 245.75 -54.45 246 -54.12 C 247.31 -52.23 247.56 -50.35 248.05 -47.97 C 248.21 -47.23 247.64 -46.49 246.82 -46.49 Z M 262.56 -35.59 C 261.91 -35.59 261.33 -36.08 261.33 -36.82 C 261.33 -37.06 261.5 -37.31 261.66 -37.56 C 266.09 -43.13 270.44 -49.2 269.37 -52.89 C 269.12 -53.71 269.7 -54.53 270.52 -54.53 C 271.09 -54.53 271.58 -54.12 271.75 -53.63 C 273.14 -48.54 268.14 -41.74 263.55 -36 C 263.3 -35.75 262.97 -35.59 262.56 -35.59 Z M 303.24 0.41 C 307.83 0.41 310.62 -2.3 311.68 -7.71 C 312.17 -9.92 313.32 -11.15 315.54 -11.15 L 318.24 -11.15 C 320.54 -11.15 321.77 -9.92 322.18 -7.71 C 323 -2.79 324.97 0.41 329.64 0.41 C 335.63 0.41 338.17 -5.99 338.17 -14.51 C 338.17 -37.06 331.53 -57.07 317.26 -57.07 C 302.17 -57.07 294.95 -37.06 294.95 -12.38 C 294.95 -3.61 297.58 0.41 303.24 0.41 Z M 317.83 -22.8 L 316.44 -22.8 C 314.06 -22.8 312.75 -24.27 313.08 -26.81 C 313.9 -33.46 315.45 -37.8 317.26 -37.8 C 320.13 -37.8 321.11 -33.78 321.52 -26.73 C 321.6 -24.19 320.21 -22.8 317.83 -22.8 Z M 333.41 -29.27 C 332.84 -29.27 332.35 -29.68 332.26 -30.26 L 331.69 -32.8 C 331.44 -33.62 332.1 -34.36 332.84 -34.36 C 333.41 -34.36 333.9 -33.95 334.07 -33.37 L 334.64 -30.75 C 334.81 -30.01 334.23 -29.27 333.41 -29.27 Z M 331.85 -35.67 C 331.28 -35.67 330.87 -36 330.71 -36.57 C 328 -45.35 323.65 -51.41 318.16 -51.99 C 317.5 -52.07 317.01 -52.64 317.01 -53.22 C 317.01 -54.04 317.75 -54.53 318.41 -54.45 C 325.29 -53.71 330.21 -46.74 333.08 -37.23 C 333.25 -36.49 332.67 -35.67 331.85 -35.67 Z M 375.07 -22.71 C 377.61 -22.71 378.76 -17.38 380.64 -12.3 C 383.68 -4.18 387.29 0.41 391.47 0.41 C 400.24 0.41 402.21 -8.86 402.21 -29.85 C 402.21 -43.38 401.14 -57.07 391.39 -57.07 C 383.1 -57.07 383.6 -49.12 383.6 -35.59 C 383.6 -33.87 383.02 -32.8 382.2 -32.8 C 380.97 -32.8 380.64 -34.69 379 -39.93 C 376.95 -46.9 373.59 -57.07 366.62 -57.07 C 357.85 -57.07 356.78 -43.38 356.78 -29.85 C 356.78 -12.3 358.75 0.41 367.44 0.41 C 372.28 0.41 374.9 -2.3 373.59 -19.93 C 373.43 -22.06 374.17 -22.71 375.07 -22.71 Z M 398.11 -29.44 C 397.45 -29.44 396.88 -29.93 396.88 -30.67 L 396.88 -32.96 C 396.88 -33.62 397.45 -34.19 398.11 -34.19 C 398.77 -34.19 399.34 -33.62 399.34 -32.96 L 399.34 -30.67 C 399.34 -29.93 398.77 -29.44 398.11 -29.44 Z M 397.95 -35.83 C 397.29 -35.83 396.72 -36.41 396.72 -37.06 C 396.72 -43.79 395.65 -49.69 392.45 -52.64 C 392.29 -52.81 392.12 -53.14 392.12 -53.38 C 392.12 -54.12 392.7 -54.61 393.35 -54.61 C 393.76 -54.61 394.09 -54.45 394.34 -54.2 C 398.11 -50.51 399.18 -43.87 399.18 -37.15 C 399.18 -36.41 398.6 -35.83 397.95 -35.83 Z M 376.71 -33.95 C 376.22 -33.95 375.72 -34.28 375.56 -34.77 C 373.59 -40.67 370.64 -50.84 367.11 -52.15 C 366.62 -52.32 366.29 -52.81 366.29 -53.3 C 366.29 -54.28 367.28 -54.69 368.02 -54.45 C 372.85 -52.48 375.89 -41.49 377.86 -35.67 C 378.1 -35.01 377.69 -33.95 376.71 -33.95 Z M 482.24 15.58 C 494.54 15.58 494.54 2.05 494.54 -7.05 C 494.54 -18.2 506.02 -15.25 506.02 -22.71 C 506.02 -31.24 494.54 -27.39 494.54 -35.26 C 494.54 -44.36 494.54 -57.81 482.24 -57.81 C 472.81 -57.81 465.1 -57.07 465.1 -50.68 C 465.1 -47.31 468.3 -43.87 474.12 -43.87 C 478.47 -43.87 480.52 -43.13 480.52 -32.64 C 480.52 -28.37 482.57 -25.26 485.77 -23.04 C 487 -22.22 487 -21.4 485.85 -20.5 C 482.41 -17.79 480.52 -13.86 480.52 -9.76 C 480.52 0.74 478.47 1.48 474.12 1.48 C 468.3 1.48 465.1 4.92 465.1 8.28 C 465.1 14.84 472.81 15.58 482.24 15.58 Z M 492.16 -29.11 C 491.75 -29.11 491.34 -29.36 491.1 -29.68 C 490.52 -30.59 490.11 -31.65 489.87 -32.88 C 489.7 -33.62 490.28 -34.36 491.1 -34.36 C 491.67 -34.36 492.16 -33.87 492.25 -33.29 C 492.49 -32.39 492.74 -31.65 493.15 -31 C 493.31 -30.83 493.39 -30.59 493.39 -30.34 C 493.39 -29.6 492.82 -29.11 492.16 -29.11 Z M 490.85 -35.67 C 490.2 -35.67 489.62 -36.24 489.62 -36.9 C 489.62 -45.02 489.21 -52.15 483.23 -52.81 C 482.57 -52.89 482.08 -53.46 482.08 -54.04 C 482.08 -54.86 482.82 -55.35 483.47 -55.27 C 491.59 -54.45 492.08 -45.26 492.08 -36.98 C 492.08 -36.24 491.51 -35.67 490.85 -35.67 Z" stroke-linecap="round" />
</g>
</g>
</g>
<g transform="matrix(1.4904469965588345 0 0 1.4904469965588345 600.2542514857824 275.14242302710124)" id="shape-56e40413-fb62-4510-8624-c5401798565b"  >
<g style=""  paint-order="stroke"   >
		<g transform="matrix(1 0 0 1 41.3493886185876 -20.950371622344946)" id="path-07"  >
<path style="stroke: none; stroke-width: 0; stroke-dasharray: none; stroke-linecap: butt; stroke-dashoffset: 0; stroke-linejoin: miter; stroke-miterlimit: 4; fill: rgb(0,0,0); fill-rule: nonzero; opacity: 1;"  paint-order="stroke"  transform=" translate(-133.0093636185876, -60.840270000000004)" d="M 112.05186 23.05036 L 112.05193 23.05029 C 112.05193 23.05029 153.96184 64.95031 153.96184 64.95031 L 153.96186 64.95033000000001 C 163.26235 74.25076000000001 163.26235 89.3298 153.96186 98.63023000000001 L 153.96184 98.63025000000002 L 137.12187 81.79028000000002 L 112.05685 56.72529000000002 C 102.75833 47.426790000000025 102.7561 32.35161000000002 112.05185999999999 23.050350000000023 Z" stroke-linecap="round" />
</g>
		<g transform="matrix(1 0 0 1 41.34939737076284 14.76235337765506)" id="path-06"  >
<path style="stroke: none; stroke-width: 0; stroke-dasharray: none; stroke-linecap: butt; stroke-dashoffset: 0; stroke-linejoin: miter; stroke-miterlimit: 4; fill: rgb(255,255,255); fill-rule: nonzero; opacity: 1;"  paint-order="stroke"  transform=" translate(-133.00937237076283, -96.55299500000001)" d="M 112.05191 140.53026 C 102.75612000000001 131.22901 102.75834 116.15382 112.05685000000001 106.85531 L 137.12187 81.79029 C 144.96823 73.97587 150.84465 61.833839999999995 141.58442 52.57571 L 153.96184 64.95032 L 153.96186 64.95034000000001 C 163.26235 74.25077000000002 163.26235 89.32981000000001 153.96186 98.63024000000001 L 153.96184 98.63026000000002 C 153.96184 98.63026000000002 112.05193 140.53028 112.05193 140.53028 L 112.05190999999999 140.53026 Z" stroke-linecap="round" />
</g>
		<g transform="matrix(1 0 0 1 -41.349508618587606 20.949658377655034)" id="path-05"  >
<path style="stroke: none; stroke-width: 0; stroke-dasharray: none; stroke-linecap: butt; stroke-dashoffset: 0; stroke-linejoin: miter; stroke-miterlimit: 4; fill: rgb(255,255,255); fill-rule: nonzero; opacity: 1;"  paint-order="stroke"  transform=" translate(-50.3104663814124, -102.74029999999999)" d="M 71.26797 140.53021 L 71.26790000000001 140.53028 C 71.26790000000001 140.53028 29.357990000000008 98.63026 29.357990000000008 98.63026 L 29.35797000000001 98.63024 C 20.05748000000001 89.32981 20.05748000000001 74.25077 29.35797000000001 64.95034 L 29.357990000000008 64.95031999999999 L 46.19796000000001 81.79029 L 71.26298000000001 106.85528 C 80.56150000000001 116.15378 80.56373000000002 131.22896 71.26797000000002 140.53021999999999 Z" stroke-linecap="round" />
</g>
		<g transform="matrix(1 0 0 1 -41.349517370762825 -14.763066622344951)" id="path-04"  >
<path style="stroke: none; stroke-width: 0; stroke-dasharray: none; stroke-linecap: butt; stroke-dashoffset: 0; stroke-linejoin: miter; stroke-miterlimit: 4; fill: rgb(115,115,115); fill-rule: nonzero; opacity: 1;"  paint-order="stroke"  transform=" translate(-50.31045762923718, -67.027575)" d="M 71.26792 23.05031 C 80.56371 32.35156 80.56149 47.42675 71.26298 56.725260000000006 L 46.197959999999995 81.79028000000001 C 38.3516 89.60470000000001 32.475179999999995 101.74673000000001 41.735409999999995 111.00486000000001 L 29.357989999999994 98.63025 L 29.357969999999995 98.63023 C 20.057479999999995 89.32979999999999 20.057479999999995 74.25076 29.357969999999995 64.95033 L 29.357989999999994 64.95030999999999 C 29.357989999999994 64.95030999999999 71.2679 23.05028999999999 71.2679 23.05028999999999 L 71.26792 23.05030999999999 Z" stroke-linecap="round" />
</g>
		<g transform="matrix(1 0 0 1 0 0)" id="path-03"  >
<path style="stroke: none; stroke-width: 0; stroke-dasharray: none; stroke-linecap: butt; stroke-dashoffset: 0; stroke-linejoin: miter; stroke-miterlimit: 4; fill: rgb(94,70,47); fill-rule: nonzero; opacity: 1;"  paint-order="stroke"  transform=" translate(-91.659975, -81.79064162234495)" d="M 183.31995 6.96628 L 33.67993 156.60629 C 24.37988 165.90628 9.309929999999998 165.90628 0 156.60629 L 16.83997 139.76626 L 149.63989 6.97629 C 158.93994 -2.323760000000001 174.01001000000002 -2.323760000000001 183.30993 6.966279999999999 L 183.31994 6.966279999999999 Z" stroke-linecap="round" />
</g>
		<g transform="matrix(1 0 0 1 -0.00500499999999704 3.483139627655021)" id="path-02"  >
<path style="stroke: none; stroke-width: 0; stroke-dasharray: none; stroke-linecap: butt; stroke-dashoffset: 0; stroke-linejoin: miter; stroke-miterlimit: 4; fill: rgb(255,255,255); fill-rule: nonzero; opacity: 1;"  paint-order="stroke"  transform=" translate(-91.65497, -85.27378124999997)" d="M 183.30994 6.96628 L 183.30994 6.9762900000000005 L 33.67993 156.60629 C 24.37988 165.90628 9.309929999999998 165.90628 0 156.60629 L 7.53992 156.13626 L 76.55994 98.62625 L 175.77002 7.44626 L 183.30993999999998 6.966279999999999 Z" stroke-linecap="round" />
</g>
		<g transform="matrix(1 0 0 1 -0.002505000000013524 -0.00014662234495688153)" id="path-01"  >
<path style="stroke: none; stroke-width: 0; stroke-dasharray: none; stroke-linecap: butt; stroke-dashoffset: 0; stroke-linejoin: miter; stroke-miterlimit: 4; fill: rgb(0,0,0); fill-rule: nonzero; opacity: 1;"  paint-order="stroke"  transform=" translate(-91.65746999999999, -81.79049499999999)" d="M 16.84375 158.58127 C 13.53174 158.58127 10.34863 157.73067999999998 7.54443 156.13253999999998 L 153.17529 10.51193 C 156.72949 6.95724 161.45459 4.99972 166.47997999999998 4.99972 C 169.79003999999998 4.99972 172.96972999999997 5.84884 175.77050999999997 7.44454 L 30.14404 153.07053 C 26.59082 156.62424 21.86718 158.58127 16.84375 158.58127 Z" stroke-linecap="round" />
</g>
</g>
</g>
</svg>