<svg xmlns="http://www.w3.org/2000/svg" xmlns:xlink="http://www.w3.org/1999/xlink" viewBox="0,0,256,256" width="240px" height="240px" fill-rule="nonzero"><g fill="#ffffff" fill-rule="nonzero" stroke="none" stroke-width="1" stroke-linecap="butt" stroke-linejoin="miter" stroke-miterlimit="10" stroke-dasharray="" stroke-dashoffset="0" font-family="none" font-weight="none" font-size="none" text-anchor="none" style="mix-blend-mode: normal"><path d="M0,256v-256h256v256z" id="bgRectangle"></path></g><g fill="none" fill-rule="nonzero" stroke="none" stroke-width="1" stroke-linecap="butt" stroke-linejoin="miter" stroke-miterlimit="10" stroke-dasharray="" stroke-dashoffset="0" font-family="none" font-weight="none" font-size="none" text-anchor="none" style="mix-blend-mode: normal"><g transform="scale(5.33333,5.33333)"><path d="M25,29v0c0,2.2 1.8,4 4,4h10c2.2,0 4,-1.8 4,-4v0c0,-2.2 -1.8,-4 -4,-4h-10c-2.2,0 -4,1.8 -4,4z" fill="#f5bc00"></path><path d="M25,35v4c0,2.2 1.8,4 4,4v0c2.2,0 4,-1.8 4,-4v0c0,-2.2 -1.8,-4 -4,-4z" fill="#f5bc00"></path><path d="M19,25v0c-2.2,0 -4,1.8 -4,4v10c0,2.2 1.8,4 4,4v0c2.2,0 4,-1.8 4,-4v-10c0,-2.2 -1.8,-4 -4,-4z" fill="#f55376"></path><path d="M13,25h-4c-2.2,0 -4,1.8 -4,4v0c0,2.2 1.8,4 4,4v0c2.2,0 4,-1.8 4,-4z" fill="#f55376"></path><path d="M23,19v0c0,-2.2 -1.8,-4 -4,-4h-10c-2.2,0 -4,1.8 -4,4v0c0,2.2 1.8,4 4,4h10c2.2,0 4,-1.8 4,-4z" fill="#00b3d7"></path><path d="M23,13v-4c0,-2.2 -1.8,-4 -4,-4v0c-2.2,0 -4,1.8 -4,4v0c0,2.2 1.8,4 4,4z" fill="#00b3d7"></path><path d="M29,23v0c2.2,0 4,-1.8 4,-4v-10c0,-2.2 -1.8,-4 -4,-4v0c-2.2,0 -4,1.8 -4,4v10c0,2.2 1.8,4 4,4z" fill="#00b569"></path><path d="M35,23h4c2.2,0 4,-1.8 4,-4v0c0,-2.2 -1.8,-4 -4,-4v0c-2.2,0 -4,1.8 -4,4z" fill="#00b569"></path></g></g></svg>